<svg width="24" height="24" viewBox="0 0 24 24" fill="none" xmlns="http://www.w3.org/2000/svg">
<path d="M20.9399 13C20.9799 13.21 21 13.41 21 13.62V18C21 20 20 21 18 21H6C4 21 3 20 3 18V13.62C3 13.41 3.02006 13.21 3.06006 13H6.94995C7.98995 13 8.87991 13.62 9.40991 14.52C9.92991 15.4 10.89 16 12 16C13.11 16 14.0701 15.4 14.5901 14.52C15.1201 13.62 16.01 13 17.04 13H20.9399Z" fill="white"/>
<path opacity="0.4" d="M7.97803 6C6.00003 6 5.69297 6.71499 5.21997 7.81799L3.24194 12.434C3.08194 12.807 2.99902 13.209 2.99902 13.616V18C2.99902 20 3.99902 21 5.99902 21H17.999C19.999 21 20.999 20 20.999 18V13.616C20.999 13.21 20.9161 12.808 20.7561 12.434L18.7781 7.81799C18.3051 6.71499 17.999 6 16.02 6H7.97803Z" fill="white"/>
<path d="M14.5301 7.47C14.2371 7.177 13.762 7.177 13.469 7.47L12.749 8.19V2C12.749 1.586 12.413 1.25 11.999 1.25C11.585 1.25 11.249 1.586 11.249 2V8.189L10.5291 7.46899C10.2361 7.17599 9.76104 7.17599 9.46804 7.46899C9.17504 7.76199 9.17504 8.237 9.46804 8.53L11.468 10.53C11.537 10.599 11.6199 10.654 11.7119 10.692C11.8039 10.73 11.901 10.75 11.999 10.75C12.097 10.75 12.1939 10.73 12.2859 10.692C12.3779 10.654 12.4611 10.599 12.5301 10.53L14.5301 8.53C14.8231 8.238 14.8231 7.762 14.5301 7.47Z" fill="white"/>
</svg>
